PathFileType	4	(X/Y/Z)	C:/Users/beibeiliu/ov580/test_trc/User3\sequence.40_training_dense_left.trc
DataRate	CameraRate	NumFrames	NumMarkers	Units	OrigDataRate	OrigDataStartFrame	OrigNumFrames
120	120	21	19	mm	120	1	287
Frame#	Time	ThumbCMC			ThumbMCP			ThumbIP			ThumbTip			IndexMCP			IndexPIP			IndexTip			MiddleMCP			MiddlePIP			MiddleTip			RingMCP			RingPIP			RingTip			PinkyMCP			PinkyPIP			PinkyTip			BackHand1			BackHand2			BackHand3	
		X0	Y0	Z0	X1	Y1	Z1	X2	Y2	Z2	X3	Y3	Z3	X4	Y4	Z4	X5	Y5	Z5	X6	Y6	Z6	X7	Y7	Z7	X8	Y8	Z8	X9	Y9	Z9	X10	Y10	Z10	X11	Y11	Z11	X12	Y12	Z12	X13	Y13	Z13	X14	Y14	Z14	X15	Y15	Z15	X16	Y16	Z16	X17	Y17	Z17	X18	Y18	Z18	
0	0	-144.77	-34.9605	54.9427	-125.865	-44.5721	35.177	-104.081	-50.8334	14.4392	-91.0132	-59.3254	-6.24664	-152.095	-29.0297	-25.1516	-141.706	-36.7498	-50.6247	-134.757	-54.5304	-77.0352	-173.817	-27.2636	-34.9622	-170.791	-35.0472	-63.8719	-168.08	-54.6428	-91.1921	-192.922	-32.1911	-31.1607	-193.835	-37.2499	-53.8967	-194.635	-52.5754	-78.4574	-217.052	-40.5667	-17.5311	-218.81	-46.761	-36.1551	-216.506	-57.0644	-59.7632	-199.94	-16.061	17.87	-206.281	-12.1233	51.9706	-170.921	-12.3926	37.1041	
1	0.00833333	-145.649	-31.9407	46.6211	-123.367	-39.1265	28.9769	-106.733	-46.8639	8.34707	-88.8023	-55.2272	-9.76504	-152.232	-30.9459	-33.0315	-141.746	-40.5078	-60.3771	-133.932	-58.2049	-82.2311	-172.395	-32.2819	-43.7866	-168.439	-40.6086	-67.2321	-164.15	-63.5595	-94.9686	-196.336	-38.6909	-35.9577	-190.27	-46.7199	-59.6364	-188.386	-66.8893	-86.4101	-213.288	-48.2211	-19.1801	-215.493	-59.2281	-46.2743	-214.817	-70.1749	-63.5055	-203.819	-20.8826	14.3782	-206.896	-13.7965	41.9225	-171.643	-13.1855	28.3242	
2	0.0166667	-145.95	-26.9972	43.6598	-124.366	-32.8486	27.0702	-100.418	-39.3659	2.67647	-88.7618	-47.1073	-9.39015	-145.96	-31.4006	-40.4197	-140.27	-40.9675	-62.2053	-126.759	-55.6689	-81.6073	-174.262	-35.4877	-45.6689	-166.043	-46.6369	-72.1258	-155.931	-68.3118	-95.5833	-189.568	-43.5294	-37.8998	-185.871	-57.4734	-66.6411	-182.531	-77.2317	-86.5649	-211.445	-55.4015	-25.1319	-210.409	-69.5987	-46.9455	-204.323	-84.9152	-62.7156	-205.312	-24.1324	8.07083	-207.62	-17.8412	36.1276	-175.514	-12.5386	25.0026	
3	0.025	-143.747	-17.72	35.3586	-124.541	-23.3075	20.3743	-101.92	-27.3807	1.0671	-86.4608	-33.3835	-10.6721	-148.904	-29.9789	-43.6872	-134.02	-38.7458	-67.5803	-128.034	-54.9478	-82.8633	-171.244	-36.9607	-47.2596	-162.291	-51.3543	-76.0223	-150.532	-74.2823	-95.4558	-185.944	-48.9476	-42.9664	-181.2	-64.2407	-66.744	-172.61	-81.2858	-82.1121	-202.009	-61.5685	-24.9183	-197.892	-76.1916	-47.0779	-192.093	-94.5883	-61.9063	-203.744	-29.0706	1.8293	-213.076	-22.2463	30.5087	-177.178	-10.3806	17.3811	
4	0.0333333	-151.667	-11.1065	35.6435	-126.107	-11.2061	16.1814	-102.571	-10.668	0.599496	-85.1501	-14.9662	-13.9135	-148.818	-24.0947	-42.5705	-136.6	-33.0799	-65.3837	-119.96	-47.5888	-82.5657	-166.161	-39.0304	-53.8407	-152.442	-54.4948	-76.166	-137.574	-73.5384	-91.3031	-184.482	-57.6869	-42.0556	-170.677	-70.7923	-66.0253	-157.689	-92.4854	-78.6589	-196.721	-73.2944	-26.7261	-184.726	-83.4714	-42.3035	-174.054	-103.162	-55.6943	-205.565	-33.4567	0.0863493	-210.296	-23.942	26.9394	-182.106	-10.548	14.3378	
5	0.0416667	-156.127	-3.92178	28.8673	-133.213	-0.786471	13.8805	-109.665	1.32983	-6.31145	-90.2539	2.8793	-16.9844	-149.587	-21.9682	-42.7569	-134.602	-35.5416	-67.6614	-115.949	-43.5768	-80.7699	-163.665	-45.8213	-51.9178	-145.553	-55.2234	-72.0354	-123.772	-75.9619	-84.8137	-175.944	-64.0166	-40.2051	-159.05	-78.3233	-60.994	-141.143	-94.7156	-69.1167	-183.53	-78.4663	-23.4719	-170.226	-89.52	-35.569	-152.159	-108.004	-43.7437	-202.481	-37.8365	2.52836	-212.703	-32.6634	27.5314	-185.343	-9.07349	12.7082	
6	0.05	-162.327	3.3359	25.1699	-139.15	9.56882	9.33589	-118.49	11.9068	-5.58722	-100.54	15.3674	-20.1433	-148.871	-27.784	-47.7099	-131.773	-30.0607	-64.4045	-111.048	-41.494	-78.5613	-156.143	-50.796	-50.6592	-136.221	-55.5469	-67.2291	-104.507	-71.3109	-78.0025	-162.935	-64.5184	-35.4737	-143.319	-79.3543	-52.936	-114.394	-91.3914	-60.4203	-168.615	-86.3858	-17.7585	-147.588	-97.3181	-29.924	-127.118	-107.219	-33.4001	-196.129	-45.8643	3.44316	-211.475	-42.2786	28.283	-192.644	-15.2479	10.2656	
7	0.0583333	-172.101	6.10121	25.3962	-148.961	14.3934	8.19859	-126.954	23.7767	-14.0619	-110.358	29.7862	-24.7993	-148.315	-26.244	-47.8623	-125.462	-28.1937	-67.0919	-105.88	-35.707	-76.964	-147.675	-50.2036	-48.7423	-125.057	-54.6533	-63.5449	-86.5264	-58.5828	-69.1954	-150.504	-66.2368	-33.2989	-126.546	-79.6411	-45.3098	-98.8972	-83.8892	-48.0078	-151.936	-87.4981	-14.8359	-132.541	-92.7799	-21.9472	-103.376	-97.1615	-23.5249	-191.583	-57.2863	4.57894	-205.872	-50.5267	26.5445	-194.529	-18.3385	6.10829	
8	0.0666667	-178.129	4.73971	19.5891	-157.896	16.0738	1.15831	-139.58	24.9585	-17.4654	-122.448	34.2709	-34.2314	-148.89	-25.6583	-46.6202	-123.559	-25.9541	-67.3405	-97.6268	-22.7757	-77.1332	-142.912	-48.5034	-44.6614	-112.251	-52.0417	-59.8534	-79.3792	-46.168	-60.8067	-138.272	-66.4977	-30.2955	-112.654	-71.739	-39.5878	-81.7884	-65.4307	-40.5649	-140.145	-83.0322	-6.24855	-117.54	-85.1207	-15.4558	-88.7301	-83.4422	-15.7103	-182.357	-59.7275	4.37137	-200.27	-56.9661	30.6758	-194.064	-26.1697	6.96445	
9	0.075	-187.617	-0.785099	19.0008	-172.401	18.7624	-3.68442	-157.614	30.576	-23.0216	-140.633	35.7584	-36.6782	-148.659	-25.5865	-47.3636	-127.657	-24.7055	-63.2619	-101.357	-17.6413	-74.613	-136.314	-46.0831	-43.9984	-109.429	-40.9606	-56.9962	-77.4087	-29.1146	-55.4128	-129.843	-59.7503	-28.6225	-103.975	-62.7058	-34.0378	-75.6582	-48.6421	-33.422	-129.891	-72.816	-2.86441	-102.137	-73.429	-9.61559	-79.5142	-63.6781	-10.6403	-174.916	-66.1347	8.75171	-191.849	-63.5885	29.8329	-195.74	-33.0517	7.35854	
10	0.0833333	-196.636	-7.027	13.8933	-186.55	10.0896	-7.56318	-172.661	23.1141	-30.5587	-160.317	33.691	-47.7544	-148.407	-29.8764	-46.4834	-130.198	-21.0528	-64.5302	-103.486	-10.0381	-74.2135	-130.935	-45.0141	-41.7483	-108.21	-34.135	-53.0701	-78.5178	-15.8757	-51.0488	-121.648	-58.3081	-19.7207	-97.6584	-50.4421	-30.1939	-73.0191	-28.7562	-31.2436	-120.391	-64.7309	1.54163	-94.3686	-59.6667	-5.7441	-74.6341	-44.338	-6.90779	-166.916	-68.2071	13.1331	-182.851	-66.7817	33.4278	-193.846	-44.0959	8.28192	
11	0.0916667	-201.044	-16.4963	17.3599	-200.334	2.23737	-10.1781	-189.675	14.6397	-34.9533	-175.844	22.8836	-50.5285	-151.623	-32.3384	-47.5741	-132.962	-21.2639	-66.9973	-113.934	-7.98614	-75.4807	-132.087	-43.8622	-38.4349	-106.801	-29.0123	-52.6282	-83.6175	-0.0536403	-52.9417	-120.468	-52.3088	-17.3836	-98.6791	-39.3863	-31.0036	-77.338	-17.9064	-30.868	-111.76	-55.9929	0.275832	-93.3045	-47.2483	-3.6124	-72.1393	-26.4549	-4.63491	-159.817	-69.9059	14.5441	-176.041	-71.2087	39.6458	-191.578	-48.014	8.44134	
12	0.1	-202.855	-25.2073	12.9458	-202.224	-9.2465	-10.2182	-200.738	5.49224	-37.7256	-191.449	15.2935	-56.7532	-154.613	-36.3378	-49.6601	-140.365	-24.1088	-70.0113	-123.325	-8.49753	-79.5662	-133.358	-43.2223	-41.4239	-110.342	-25.5223	-55.5555	-93.4973	1.74168	-56.917	-117.957	-50.3999	-18.2474	-99.2501	-32.4126	-35.0635	-83.1309	-8.2404	-35.2585	-110.925	-51.9547	6.14073	-92.2278	-39.798	-2.50568	-76.3317	-14.6523	-8.94449	-157.394	-66.4865	13.6464	-174.146	-70.4	42.6103	-190.037	-54.5882	12.8469	
13	0.108333	-207.731	-28.1547	15.2133	-209.637	-14.2548	-14.0944	-206.76	-2.76383	-41.1502	-198.134	8.59231	-60.2408	-156.502	-42.6486	-46.166	-144.428	-31.6427	-69.9079	-126.722	-9.42439	-84.5803	-133.094	-46.855	-43.5239	-115.681	-27.3767	-59.8022	-101.58	1.64326	-62.8378	-119.559	-49.6512	-22.952	-102.293	-35.4982	-35.091	-88.7428	-8.54875	-40.0434	-109.968	-49.778	-0.691572	-90.4643	-32.8443	-6.767	-81.8102	-10.8464	-13.1011	-155.295	-67.9726	14.5686	-171.066	-73.1781	40.8313	-191.376	-60.8555	14.376	
14	0.116667	-209.937	-32.353	13.1766	-212.4	-18.7209	-11.2942	-211.309	-6.40225	-39.5497	-201.635	3.30526	-59.202	-156.697	-46.2748	-49.9008	-144.883	-35.2064	-71.9371	-130.707	-13.8674	-86.5943	-137.684	-50.4761	-43.0591	-119.573	-32.1645	-62.4341	-101.338	2.22146	-65.3392	-121.445	-52.2536	-24.1887	-102.195	-36.6744	-38.6458	-91.6979	-11.5459	-43.9089	-107.471	-51.7692	0.778449	-92.3183	-38.5133	-7.21596	-80.7128	-10.3904	-15.3848	-153.64	-72.7624	18.3011	-169.719	-72.3637	40.4155	-188.456	-63.46	12.7763	
15	0.125	-209.145	-33.8775	12.5971	-210.467	-20.9999	-14.1903	-210.117	-9.46367	-44.1748	-204.805	2.63194	-59.1649	-160.037	-48.1284	-50.5419	-148.845	-36.2404	-75.0456	-129.004	-16.4409	-89.6618	-136.031	-55.0109	-41.6912	-118.914	-34.0415	-65.7483	-103.771	-5.1801	-69.9964	-121.658	-55.6673	-23.2115	-104.689	-40.012	-40.0355	-90.3772	-13.4242	-44.7329	-107.969	-54.1815	1.18545	-93.34	-39.7981	-10.588	-83.0277	-14.8659	-18.9752	-153.643	-72.637	14.4055	-169.422	-74.7709	40.9576	-189.098	-66.2696	9.04687	
16	0.133333	-209.843	-35.9406	12.7732	-210.669	-22.063	-17.9093	-209.676	-10.6788	-41.5574	-202.595	0.21673	-63.979	-159.868	-51.0557	-49.1324	-143.996	-38.2362	-75.1004	-131.208	-21.1126	-90.0247	-135.079	-57.2846	-40.2973	-116.183	-39.9678	-63.5092	-102.365	-9.69712	-70.8712	-122.704	-55.626	-26.7125	-100.96	-40.8556	-40.9747	-88.4789	-11.6581	-47.2145	-107.992	-54.5286	-1.34015	-92.7128	-41.762	-10.7973	-83.1057	-18.41	-18.5704	-154.674	-75.0289	17.9632	-168.699	-77.3042	38.5217	-186.445	-68.4303	9.32927	
17	0.141667	-209.632	-36.551	9.83334	-210.156	-21.9334	-12.9921	-209.344	-9.27209	-39.9861	-203.114	2.54312	-62.1101	-162.518	-51.977	-50.7848	-144.101	-40.4724	-75.8962	-132.019	-23.1294	-90.407	-133.653	-58.1069	-45.7253	-118.971	-41.5244	-65.2834	-100.412	-7.76343	-71.2972	-119.467	-58.6314	-26.0166	-101.516	-44.8603	-40.642	-92.7316	-14.509	-49.6929	-110.86	-57.0035	-1.71987	-90.2362	-41.4089	-12.2799	-82.5667	-21.6773	-18.7074	-154.416	-76.4115	13.872	-165.856	-78.4131	39.1926	-185.582	-69.5145	11.3864	
18	0.15	-208.848	-36.793	7.91382	-207.846	-21.9733	-12.8149	-206.52	-6.95324	-44.0625	-195.158	2.63071	-59.7921	-161.765	-53.1632	-50.1698	-147.729	-42.9663	-77.0517	-130.793	-24.5613	-90.7183	-136.946	-60.1618	-45.0283	-115.194	-40.8033	-66.4359	-103.254	-13.263	-71.7727	-121.508	-60.5127	-25.728	-99.6705	-44.2891	-42.003	-90.2923	-13.572	-49.4366	-110.099	-57.4367	-2.07685	-92.1245	-41.8758	-15.8854	-83.9937	-22.1492	-22.3377	-155.805	-76.3546	14.4661	-167.335	-80.2914	41.1326	-185.007	-68.3937	12.5226	
19	0.158333	-205.876	-36.1443	9.89603	-207.825	-19.262	-15.7682	-201.627	-6.65594	-41.6353	-190.527	4.87948	-60.925	-159.716	-56.3076	-54.3711	-150.038	-45.6618	-76.3311	-133.657	-23.4682	-90.4814	-136.507	-61.3967	-48.9183	-122.954	-42.5377	-69.6509	-106.907	-12.7013	-73.0426	-119.085	-61.0365	-29.3473	-104.851	-46.319	-44.1413	-93.7198	-14.7765	-50.8635	-110.642	-59.472	-2.02864	-92.5214	-44.9628	-14.1833	-83.9898	-20.6597	-21.4756	-154.901	-79.8185	11.4831	-169.129	-77.5136	41.5557	-191.221	-68.6066	10.2799	
20	0.166667	-204.26	-35.4778	12.4004	-201.539	-18.1038	-18.7839	-193.385	-5.96043	-45.2164	-177.906	4.10733	-62.6026	-164.633	-56.7693	-51.9484	-148.552	-42.8424	-79.0354	-135.041	-18.2491	-89.6797	-139.252	-63.2768	-47.2949	-126.822	-44.6583	-71.6465	-110.779	-10.9453	-74.7408	-123.744	-62.3858	-30.0519	-103.921	-43.8584	-48.5448	-98.6	-16.6291	-53.3889	-112.11	-60.5087	-6.52733	-94.892	-45.7935	-18.376	-87.6882	-23.1945	-28.4027	-155.717	-78.4316	11.4289	-167.761	-78.5371	36.9129	-187.24	-70.9108	8.48584	
